# xmcd CD database file
#
# Track frame offsets:
#	150
#	28266
#	67373
#	123979
#	143057
#
# Disc length: 2433 seconds
#
# Revision: 0
# Processed by: cddbd v1.5.2PL0 Copyright (c) Steve Scherf et al.
# Submitted via: CDex 1.70beta2
#
DISCID=4b097f05
DTITLE=Art Blakey - The Theme 
DYEAR=1955
DGENRE=Jazz
TTITLE0=The Theme
TTITLE1=Prince Albert
TTITLE2=Soft Winds
TTITLE3=Alone Together
TTITLE4=Minor's Holiday
EXTD=YEAR: 1955
EXTT0=
EXTT1=
EXTT2=
EXTT3=
EXTT4=
PLAYORDER=
